# 3ds Max Wavefront OBJ Exporter v0.99 - (c)2007 guruware
# File Created: 28.11.2021 00:15:20

mtllib pyramid.mtl

#
# object Pyramid001
#

v  0.0000 1.0000 -0.0000
v  -0.5000 0.0000 0.5000
v  0.5000 0.0000 0.5000
v  0.5000 0.0000 -0.5000
v  -0.5000 0.0000 -0.5000
v  0.0000 0.0000 -0.0000
# 6 vertices

vn 0.0000 0.4472 0.8944
vn 0.8944 0.4472 -0.0000
vn 0.0000 0.4472 -0.8944
vn -0.8944 0.4472 -0.0000
vn 0.0000 -1.0000 -0.0000
# 5 vertex normals

vt 0.5334 0.7601 0.0000
vt 0.3596 0.3716 0.0000
vt 0.7071 0.3716 0.0000
vt 0.9388 0.6306 0.0000
vt 0.1666 0.9759 0.0000
vt 0.1280 0.6306 0.0000
vt 0.5334 0.1978 0.0000
vt 0.7071 0.0241 0.0000
vt 0.3596 0.0241 0.0000
# 9 texture coords

o Pyramid001
g Pyramid001
usemtl wire_141007058
f 1/1/1 2/2/1 3/3/1 
f 1/1/2 3/3/2 4/4/2 
f 1/1/3 4/5/3 5/6/3 
f 1/1/4 5/6/4 2/2/4 
f 2/2/5 6/7/5 3/3/5 
f 3/3/5 6/7/5 4/8/5 
f 4/8/5 6/7/5 5/9/5 
f 5/9/5 6/7/5 2/2/5 
# 8 faces

