# 3ds Max Wavefront OBJ Exporter v0.99 - (c)2007 guruware
# File Created: 10.12.2021 21:47:50

mtllib crown.mtl

#
# object Cylinder001
#

v  0.0570 0.0000 -0.0000
v  0.0536 0.0000 -0.0195
v  0.0536 0.0223 -0.0195
v  0.0570 0.0223 -0.0000
v  0.0437 0.0000 -0.0366
v  0.0437 0.0223 -0.0366
v  0.0285 0.0000 -0.0494
v  0.0285 0.0223 -0.0494
v  0.0099 0.0000 -0.0561
v  0.0099 0.0223 -0.0561
v  -0.0099 0.0000 -0.0561
v  -0.0099 0.0223 -0.0561
v  -0.0285 0.0000 -0.0494
v  -0.0285 0.0223 -0.0494
v  -0.0437 0.0000 -0.0366
v  -0.0437 0.0223 -0.0366
v  -0.0536 0.0000 -0.0195
v  -0.0536 0.0223 -0.0195
v  -0.0570 0.0000 -0.0000
v  -0.0570 0.0223 -0.0000
v  -0.0536 0.0000 0.0195
v  -0.0536 0.0223 0.0195
v  -0.0437 0.0000 0.0366
v  -0.0437 0.0223 0.0366
v  -0.0285 0.0000 0.0494
v  -0.0285 0.0223 0.0494
v  -0.0099 0.0000 0.0561
v  -0.0099 0.0223 0.0561
v  0.0099 0.0000 0.0561
v  0.0099 0.0223 0.0561
v  0.0285 0.0000 0.0494
v  0.0285 0.0223 0.0494
v  0.0437 0.0000 0.0366
v  0.0437 0.0223 0.0366
v  0.0536 0.0000 0.0195
v  0.0536 0.0223 0.0195
v  0.0536 0.0447 -0.0195
v  0.0570 0.0447 -0.0000
v  0.0437 0.0447 -0.0366
v  0.0285 0.0447 -0.0494
v  0.0099 0.0447 -0.0561
v  -0.0099 0.0447 -0.0561
v  -0.0285 0.0447 -0.0494
v  -0.0437 0.0447 -0.0366
v  -0.0536 0.0447 -0.0195
v  -0.0570 0.0447 -0.0000
v  -0.0536 0.0447 0.0195
v  -0.0437 0.0447 0.0366
v  -0.0285 0.0447 0.0494
v  -0.0099 0.0447 0.0561
v  0.0099 0.0447 0.0561
v  0.0285 0.0447 0.0494
v  0.0437 0.0447 0.0366
v  0.0536 0.0447 0.0195
v  0.0536 0.0560 -0.0195
v  0.0570 0.0560 -0.0000
v  0.0437 0.1189 -0.0366
v  0.0285 0.0560 -0.0494
v  0.0099 0.0560 -0.0561
v  -0.0099 0.1189 -0.0561
v  -0.0285 0.0560 -0.0494
v  -0.0437 0.0560 -0.0366
v  -0.0536 0.1189 -0.0195
v  -0.0570 0.0560 -0.0000
v  -0.0536 0.0560 0.0195
v  -0.0437 0.1189 0.0366
v  -0.0285 0.0560 0.0494
v  -0.0099 0.0560 0.0561
v  0.0099 0.1189 0.0561
v  0.0285 0.0560 0.0494
v  0.0437 0.0560 0.0366
v  0.0536 0.1189 0.0195
# 72 vertices

vn 1.0000 0.0000 0.0000
vn 0.9397 0.0000 -0.3420
vn 0.9397 -0.0000 -0.3420
vn 1.0000 -0.0000 0.0000
vn 0.7660 0.0000 -0.6428
vn 0.7660 -0.0000 -0.6428
vn 0.5000 0.0000 -0.8660
vn 0.1736 0.0000 -0.9848
vn -0.1736 0.0000 -0.9848
vn -0.1736 -0.0000 -0.9848
vn -0.5000 0.0000 -0.8660
vn -0.5000 -0.0000 -0.8660
vn -0.7660 0.0000 -0.6428
vn -0.9397 0.0000 -0.3420
vn -1.0000 0.0000 -0.0000
vn -1.0000 -0.0000 -0.0000
vn -0.9397 0.0000 0.3420
vn -0.9397 -0.0000 0.3420
vn -0.7660 0.0000 0.6428
vn -0.5000 0.0000 0.8660
vn -0.1736 0.0000 0.9848
vn 0.1736 0.0000 0.9848
vn 0.1736 -0.0000 0.9848
vn 0.5000 0.0000 0.8660
vn 0.5000 -0.0000 0.8660
vn 0.7660 0.0000 0.6428
vn 0.9397 0.0000 0.3420
vn 0.5000 -0.0000 -0.8660
vn 0.1736 -0.0000 -0.9848
vn -0.7660 -0.0000 -0.6428
vn -0.9397 -0.0000 -0.3420
vn -0.7660 -0.0000 0.6428
vn 0.7660 -0.0000 0.6428
vn 0.9397 -0.0000 0.3420
vn 0.9212 -0.0000 -0.3891
vn 0.9987 -0.0000 0.0506
vn 0.5432 -0.0000 -0.8396
vn 0.1236 -0.0000 -0.9923
vn -0.4556 -0.0000 -0.8902
vn -0.7976 0.0000 -0.6032
vn -0.9987 0.0000 -0.0506
vn -0.9212 0.0000 0.3891
vn -0.5432 0.0000 0.8396
vn -0.1236 0.0000 0.9923
vn 0.4556 0.0000 0.8902
vn 0.7976 -0.0000 0.6032
# 46 vertex normals

vt 0.7500 0.0000 1.0000
vt 0.8056 0.0000 1.0000
vt 0.8056 0.3333 1.0000
vt 0.7500 0.3333 1.0000
vt 0.8611 0.0000 1.0000
vt 0.8611 0.3333 1.0000
vt 0.9167 0.0000 1.0000
vt 0.9167 0.3333 1.0000
vt 0.9722 0.0000 1.0000
vt 0.9722 0.3333 1.0000
vt -0.0278 0.0000 1.0000
vt 0.0278 0.0000 1.0000
vt 0.0278 0.3333 1.0000
vt -0.0278 0.3333 1.0000
vt 0.0833 0.0000 1.0000
vt 0.0833 0.3333 1.0000
vt 0.1389 0.0000 1.0000
vt 0.1389 0.3333 1.0000
vt 0.1944 0.0000 1.0000
vt 0.1944 0.3333 1.0000
vt 0.2500 0.0000 1.0000
vt 0.2500 0.3333 1.0000
vt 0.3056 0.0000 1.0000
vt 0.3056 0.3333 1.0000
vt 0.3611 0.0000 1.0000
vt 0.3611 0.3333 1.0000
vt 0.4167 0.0000 1.0000
vt 0.4167 0.3333 1.0000
vt 0.4722 0.0000 1.0000
vt 0.4722 0.3333 1.0000
vt 0.5278 0.0000 1.0000
vt 0.5278 0.3333 1.0000
vt 0.5833 0.0000 1.0000
vt 0.5833 0.3333 1.0000
vt 0.6389 0.0000 1.0000
vt 0.6389 0.3333 1.0000
vt 0.6944 0.0000 1.0000
vt 0.6944 0.3333 1.0000
vt 0.8056 0.6667 1.0000
vt 0.7500 0.6667 1.0000
vt 0.8611 0.6667 1.0000
vt 0.9167 0.6667 1.0000
vt 0.9722 0.6667 1.0000
vt 0.0278 0.6667 1.0000
vt -0.0278 0.6667 1.0000
vt 0.0833 0.6667 1.0000
vt 0.1389 0.6667 1.0000
vt 0.1944 0.6667 1.0000
vt 0.2500 0.6667 1.0000
vt 0.3056 0.6667 1.0000
vt 0.3611 0.6667 1.0000
vt 0.4167 0.6667 1.0000
vt 0.4722 0.6667 1.0000
vt 0.5278 0.6667 1.0000
vt 0.5833 0.6667 1.0000
vt 0.6389 0.6667 1.0000
vt 0.6944 0.6667 1.0000
vt 0.8056 1.0000 1.0000
vt 0.7500 1.0000 1.0000
vt 0.8611 1.0000 1.0000
vt 0.9167 1.0000 1.0000
vt 0.9722 1.0000 1.0000
vt 0.0278 1.0000 1.0000
vt -0.0278 1.0000 1.0000
vt 0.0833 1.0000 1.0000
vt 0.1389 1.0000 1.0000
vt 0.1944 1.0000 1.0000
vt 0.2500 1.0000 1.0000
vt 0.3056 1.0000 1.0000
vt 0.3611 1.0000 1.0000
vt 0.4167 1.0000 1.0000
vt 0.4722 1.0000 1.0000
vt 0.5278 1.0000 1.0000
vt 0.5833 1.0000 1.0000
vt 0.6389 1.0000 1.0000
vt 0.6944 1.0000 1.0000
# 76 texture coords

o Cylinder001
g Cylinder001
usemtl wire_135110008
s 8
f 1/1/1 2/2/2 3/3/3 
f 3/3/3 4/4/4 1/1/1 
f 2/2/2 5/5/5 6/6/6 
f 6/6/6 3/3/3 2/2/2 
f 5/5/5 7/7/7 8/8/7 
f 8/8/7 6/6/6 5/5/5 
f 7/7/7 9/9/8 10/10/8 
f 10/10/8 8/8/7 7/7/7 
f 9/11/8 11/12/9 12/13/10 
f 12/13/10 10/14/8 9/11/8 
f 11/12/9 13/15/11 14/16/12 
f 14/16/12 12/13/10 11/12/9 
f 13/15/11 15/17/13 16/18/13 
f 16/18/13 14/16/12 13/15/11 
f 15/17/13 17/19/14 18/20/14 
f 18/20/14 16/18/13 15/17/13 
f 17/19/14 19/21/15 20/22/16 
f 20/22/16 18/20/14 17/19/14 
f 19/21/15 21/23/17 22/24/18 
f 22/24/18 20/22/16 19/21/15 
f 21/23/17 23/25/19 24/26/19 
f 24/26/19 22/24/18 21/23/17 
f 23/25/19 25/27/20 26/28/20 
f 26/28/20 24/26/19 23/25/19 
f 25/27/20 27/29/21 28/30/21 
f 28/30/21 26/28/20 25/27/20 
f 27/29/21 29/31/22 30/32/23 
f 30/32/23 28/30/21 27/29/21 
f 29/31/22 31/33/24 32/34/25 
f 32/34/25 30/32/23 29/31/22 
f 31/33/24 33/35/26 34/36/26 
f 34/36/26 32/34/25 31/33/24 
f 33/35/26 35/37/27 36/38/27 
f 36/38/27 34/36/26 33/35/26 
f 35/37/27 1/1/1 4/4/4 
f 4/4/4 36/38/27 35/37/27 
f 4/4/4 3/3/3 37/39/3 
f 37/39/3 38/40/4 4/4/4 
f 3/3/3 6/6/6 39/41/6 
f 39/41/6 37/39/3 3/3/3 
f 6/6/6 8/8/7 40/42/28 
f 40/42/28 39/41/6 6/6/6 
f 8/8/7 10/10/8 41/43/29 
f 41/43/29 40/42/28 8/8/7 
f 10/14/8 12/13/10 42/44/10 
f 42/44/10 41/45/29 10/14/8 
f 12/13/10 14/16/12 43/46/12 
f 43/46/12 42/44/10 12/13/10 
f 14/16/12 16/18/13 44/47/30 
f 44/47/30 43/46/12 14/16/12 
f 16/18/13 18/20/14 45/48/31 
f 45/48/31 44/47/30 16/18/13 
f 18/20/14 20/22/16 46/49/16 
f 46/49/16 45/48/31 18/20/14 
f 20/22/16 22/24/18 47/50/18 
f 47/50/18 46/49/16 20/22/16 
f 22/24/18 24/26/19 48/51/32 
f 48/51/32 47/50/18 22/24/18 
f 24/26/19 26/28/20 49/52/20 
f 49/52/20 48/51/32 24/26/19 
f 26/28/20 28/30/21 50/53/21 
f 50/53/21 49/52/20 26/28/20 
f 28/30/21 30/32/23 51/54/23 
f 51/54/23 50/53/21 28/30/21 
f 30/32/23 32/34/25 52/55/24 
f 52/55/24 51/54/23 30/32/23 
f 32/34/25 34/36/26 53/56/33 
f 53/56/33 52/55/24 32/34/25 
f 34/36/26 36/38/27 54/57/34 
f 54/57/34 53/56/33 34/36/26 
f 36/38/27 4/4/4 38/40/4 
f 38/40/4 54/57/34 36/38/27 
f 38/40/4 37/39/3 55/58/35 
f 55/58/35 56/59/36 38/40/4 
f 37/39/3 39/41/6 57/60/5 
f 57/60/5 55/58/35 37/39/3 
f 39/41/6 40/42/28 58/61/37 
f 58/61/37 57/60/5 39/41/6 
f 40/42/28 41/43/29 59/62/38 
f 59/62/38 58/61/37 40/42/28 
f 41/45/29 42/44/10 60/63/10 
f 60/63/10 59/64/38 41/45/29 
f 42/44/10 43/46/12 61/65/39 
f 61/65/39 60/63/10 42/44/10 
f 43/46/12 44/47/30 62/66/40 
f 62/66/40 61/65/39 43/46/12 
f 44/47/30 45/48/31 63/67/14 
f 63/67/14 62/66/40 44/47/30 
f 45/48/31 46/49/16 64/68/41 
f 64/68/41 63/67/14 45/48/31 
f 46/49/16 47/50/18 65/69/42 
f 65/69/42 64/68/41 46/49/16 
f 47/50/18 48/51/32 66/70/19 
f 66/70/19 65/69/42 47/50/18 
f 48/51/32 49/52/20 67/71/43 
f 67/71/43 66/70/19 48/51/32 
f 49/52/20 50/53/21 68/72/44 
f 68/72/44 67/71/43 49/52/20 
f 50/53/21 51/54/23 69/73/22 
f 69/73/22 68/72/44 50/53/21 
f 51/54/23 52/55/24 70/74/45 
f 70/74/45 69/73/22 51/54/23 
f 52/55/24 53/56/33 71/75/46 
f 71/75/46 70/74/45 52/55/24 
f 53/56/33 54/57/34 72/76/34 
f 72/76/34 71/75/46 53/56/33 
f 54/57/34 38/40/4 56/59/36 
f 56/59/36 72/76/34 54/57/34 
# 108 faces

