# 3ds Max Wavefront OBJ Exporter v0.99 - (c)2007 guruware
# File Created: 10.12.2021 21:12:36

mtllib portal1.mtl

#
# object Cylinder001
#

v  0.0000 0.0000 -0.0000
v  0.6668 0.0000 -0.2427
v  0.7096 0.0000 -0.0000
v  0.5436 0.0000 -0.4561
v  0.3548 0.0000 -0.6145
v  0.1232 0.0000 -0.6988
v  -0.1232 0.0000 -0.6988
v  -0.3548 0.0000 -0.6145
v  -0.5436 0.0000 -0.4561
v  -0.6668 0.0000 -0.2427
v  -0.7096 0.0000 -0.0000
v  -0.6668 0.0000 0.2427
v  -0.5436 0.0000 0.4561
v  -0.3548 0.0000 0.6145
v  -0.1232 0.0000 0.6988
v  0.1232 0.0000 0.6988
v  0.3548 0.0000 0.6145
v  0.5436 0.0000 0.4561
v  0.6668 0.0000 0.2427
v  0.6668 0.0001 -0.2427
v  0.7096 0.0001 -0.0000
v  0.5436 0.0001 -0.4561
v  0.3548 0.0001 -0.6145
v  0.1232 0.0001 -0.6988
v  -0.1232 0.0001 -0.6988
v  -0.3548 0.0001 -0.6145
v  -0.5436 0.0001 -0.4561
v  -0.6668 0.0001 -0.2427
v  -0.7096 0.0001 -0.0000
v  -0.6668 0.0001 0.2427
v  -0.5436 0.0001 0.4561
v  -0.3548 0.0001 0.6145
v  -0.1232 0.0001 0.6988
v  0.1232 0.0001 0.6988
v  0.3548 0.0001 0.6145
v  0.5436 0.0001 0.4561
v  0.6668 0.0001 0.2427
v  0.6668 0.0003 -0.2427
v  0.7096 0.0003 -0.0000
v  0.5436 0.0003 -0.4561
v  0.3548 0.0003 -0.6145
v  0.1232 0.0003 -0.6988
v  -0.1232 0.0003 -0.6988
v  -0.3548 0.0003 -0.6145
v  -0.5436 0.0003 -0.4561
v  -0.6668 0.0003 -0.2427
v  -0.7096 0.0003 -0.0000
v  -0.6668 0.0003 0.2427
v  -0.5436 0.0003 0.4561
v  -0.3548 0.0003 0.6145
v  -0.1232 0.0003 0.6988
v  0.1232 0.0003 0.6988
v  0.3548 0.0003 0.6145
v  0.5436 0.0003 0.4561
v  0.6668 0.0003 0.2427
v  0.6668 0.0004 -0.2427
v  0.7096 0.0004 -0.0000
v  0.5436 0.0004 -0.4561
v  0.3548 0.0004 -0.6145
v  0.1232 0.0004 -0.6988
v  -0.1232 0.0004 -0.6988
v  -0.3548 0.0004 -0.6145
v  -0.5436 0.0004 -0.4561
v  -0.6668 0.0004 -0.2427
v  -0.7096 0.0004 -0.0000
v  -0.6668 0.0004 0.2427
v  -0.5436 0.0004 0.4561
v  -0.3548 0.0004 0.6145
v  -0.1232 0.0004 0.6988
v  0.1232 0.0004 0.6988
v  0.3548 0.0004 0.6145
v  0.5436 0.0004 0.4561
v  0.6668 0.0004 0.2427
v  0.6668 0.0005 -0.2427
v  0.7096 0.0005 -0.0000
v  0.5436 0.0005 -0.4561
v  0.3548 0.0005 -0.6145
v  0.1232 0.0005 -0.6988
v  -0.1232 0.0005 -0.6988
v  -0.3548 0.0005 -0.6145
v  -0.5436 0.0005 -0.4561
v  -0.6668 0.0005 -0.2427
v  -0.7096 0.0005 -0.0000
v  -0.6668 0.0005 0.2427
v  -0.5436 0.0005 0.4561
v  -0.3548 0.0005 0.6145
v  -0.1232 0.0005 0.6988
v  0.1232 0.0005 0.6988
v  0.3548 0.0005 0.6145
v  0.5436 0.0005 0.4561
v  0.6668 0.0005 0.2427
v  0.6668 0.0007 -0.2427
v  0.7096 0.0007 -0.0000
v  0.5436 0.0007 -0.4561
v  0.3548 0.0007 -0.6145
v  0.1232 0.0007 -0.6988
v  -0.1232 0.0007 -0.6988
v  -0.3548 0.0007 -0.6145
v  -0.5436 0.0007 -0.4561
v  -0.6668 0.0007 -0.2427
v  -0.7096 0.0007 -0.0000
v  -0.6668 0.0007 0.2427
v  -0.5436 0.0007 0.4561
v  -0.3548 0.0007 0.6145
v  -0.1232 0.0007 0.6988
v  0.1232 0.0007 0.6988
v  0.3548 0.0007 0.6145
v  0.5436 0.0007 0.4561
v  0.6668 0.0007 0.2427
v  0.0000 0.0007 -0.0000
# 110 vertices

vn 0.0000 -1.0000 -0.0000
vn 1.0000 0.0000 -0.0000
vn 0.9397 0.0000 -0.3420
vn 1.0000 0.0000 0.0000
vn 0.7660 0.0000 -0.6428
vn 0.5000 0.0000 -0.8660
vn 0.1736 0.0000 -0.9848
vn 0.1737 0.0000 -0.9848
vn -0.1736 0.0000 -0.9848
vn -0.5000 0.0000 -0.8660
vn -0.7660 0.0000 -0.6428
vn -0.9397 0.0000 -0.3420
vn -1.0000 0.0000 0.0000
vn -1.0000 0.0000 -0.0000
vn -0.9397 0.0000 0.3420
vn -0.7660 0.0000 0.6428
vn -0.5000 0.0000 0.8660
vn -0.1736 0.0000 0.9848
vn 0.1736 0.0000 0.9848
vn 0.5000 0.0000 0.8660
vn 0.7660 0.0000 0.6428
vn 0.9397 0.0000 0.3420
vn -0.1737 0.0000 -0.9848
vn 0.0000 1.0000 -0.0000
# 24 vertex normals

vt 0.5000 0.0000 0.0000
vt 0.8056 0.0000 1.0000
vt 0.7500 0.0000 1.0000
vt 0.8611 0.0000 1.0000
vt 0.9167 0.0000 1.0000
vt 0.9722 0.0000 1.0000
vt 0.0278 0.0000 1.0000
vt -0.0278 0.0000 1.0000
vt 0.0833 0.0000 1.0000
vt 0.1389 0.0000 1.0000
vt 0.1944 0.0000 1.0000
vt 0.2500 0.0000 1.0000
vt 0.3056 0.0000 1.0000
vt 0.3611 0.0000 1.0000
vt 0.4167 0.0000 1.0000
vt 0.4722 0.0000 1.0000
vt 0.5278 0.0000 1.0000
vt 0.5833 0.0000 1.0000
vt 0.6389 0.0000 1.0000
vt 0.6944 0.0000 1.0000
vt 0.8056 0.2000 1.0000
vt 0.7500 0.2000 1.0000
vt 0.8611 0.2000 1.0000
vt 0.9167 0.2000 1.0000
vt 0.9722 0.2000 1.0000
vt 0.0278 0.2000 1.0000
vt -0.0278 0.2000 1.0000
vt 0.0833 0.2000 1.0000
vt 0.1389 0.2000 1.0000
vt 0.1944 0.2000 1.0000
vt 0.2500 0.2000 1.0000
vt 0.3056 0.2000 1.0000
vt 0.3611 0.2000 1.0000
vt 0.4167 0.2000 1.0000
vt 0.4722 0.2000 1.0000
vt 0.5278 0.2000 1.0000
vt 0.5833 0.2000 1.0000
vt 0.6389 0.2000 1.0000
vt 0.6944 0.2000 1.0000
vt 0.8056 0.4000 1.0000
vt 0.7500 0.4000 1.0000
vt 0.8611 0.4000 1.0000
vt 0.9167 0.4000 1.0000
vt 0.9722 0.4000 1.0000
vt 0.0278 0.4000 1.0000
vt -0.0278 0.4000 1.0000
vt 0.0833 0.4000 1.0000
vt 0.1389 0.4000 1.0000
vt 0.1944 0.4000 1.0000
vt 0.2500 0.4000 1.0000
vt 0.3056 0.4000 1.0000
vt 0.3611 0.4000 1.0000
vt 0.4167 0.4000 1.0000
vt 0.4722 0.4000 1.0000
vt 0.5278 0.4000 1.0000
vt 0.5833 0.4000 1.0000
vt 0.6389 0.4000 1.0000
vt 0.6944 0.4000 1.0000
vt 0.8056 0.6000 1.0000
vt 0.7500 0.6000 1.0000
vt 0.8611 0.6000 1.0000
vt 0.9167 0.6000 1.0000
vt 0.9722 0.6000 1.0000
vt 0.0278 0.6000 1.0000
vt -0.0278 0.6000 1.0000
vt 0.0833 0.6000 1.0000
vt 0.1389 0.6000 1.0000
vt 0.1944 0.6000 1.0000
vt 0.2500 0.6000 1.0000
vt 0.3056 0.6000 1.0000
vt 0.3611 0.6000 1.0000
vt 0.4167 0.6000 1.0000
vt 0.4722 0.6000 1.0000
vt 0.5278 0.6000 1.0000
vt 0.5833 0.6000 1.0000
vt 0.6389 0.6000 1.0000
vt 0.6944 0.6000 1.0000
vt 0.8056 0.8000 1.0000
vt 0.7500 0.8000 1.0000
vt 0.8611 0.8000 1.0000
vt 0.9167 0.8000 1.0000
vt 0.9722 0.8000 1.0000
vt 0.0278 0.8000 1.0000
vt -0.0278 0.8000 1.0000
vt 0.0833 0.8000 1.0000
vt 0.1389 0.8000 1.0000
vt 0.1944 0.8000 1.0000
vt 0.2500 0.8000 1.0000
vt 0.3056 0.8000 1.0000
vt 0.3611 0.8000 1.0000
vt 0.4167 0.8000 1.0000
vt 0.4722 0.8000 1.0000
vt 0.5278 0.8000 1.0000
vt 0.5833 0.8000 1.0000
vt 0.6389 0.8000 1.0000
vt 0.6944 0.8000 1.0000
vt 0.8056 1.0000 1.0000
vt 0.7500 1.0000 1.0000
vt 0.8611 1.0000 1.0000
vt 0.9167 1.0000 1.0000
vt 0.9722 1.0000 1.0000
vt 0.0278 1.0000 1.0000
vt -0.0278 1.0000 1.0000
vt 0.0833 1.0000 1.0000
vt 0.1389 1.0000 1.0000
vt 0.1944 1.0000 1.0000
vt 0.2500 1.0000 1.0000
vt 0.3056 1.0000 1.0000
vt 0.3611 1.0000 1.0000
vt 0.4167 1.0000 1.0000
vt 0.4722 1.0000 1.0000
vt 0.5278 1.0000 1.0000
vt 0.5833 1.0000 1.0000
vt 0.6389 1.0000 1.0000
vt 0.6944 1.0000 1.0000
vt 0.5000 1.0000 0.0000
# 116 texture coords

o Cylinder001
g Cylinder001
usemtl wire_227153153
f 1/1/1 2/2/1 3/3/1 
f 1/1/1 4/4/1 2/2/1 
f 1/1/1 5/5/1 4/4/1 
f 1/1/1 6/6/1 5/5/1 
f 1/1/1 7/7/1 6/8/1 
f 1/1/1 8/9/1 7/7/1 
f 1/1/1 9/10/1 8/9/1 
f 1/1/1 10/11/1 9/10/1 
f 1/1/1 11/12/1 10/11/1 
f 1/1/1 12/13/1 11/12/1 
f 1/1/1 13/14/1 12/13/1 
f 1/1/1 14/15/1 13/14/1 
f 1/1/1 15/16/1 14/15/1 
f 1/1/1 16/17/1 15/16/1 
f 1/1/1 17/18/1 16/17/1 
f 1/1/1 18/19/1 17/18/1 
f 1/1/1 19/20/1 18/19/1 
f 1/1/1 3/3/1 19/20/1 
f 3/3/2 20/21/3 21/22/4 
f 3/3/2 2/2/3 20/21/3 
f 2/2/3 22/23/5 20/21/3 
f 2/2/3 4/4/5 22/23/5 
f 4/4/5 23/24/6 22/23/5 
f 4/4/5 5/5/6 23/24/6 
f 5/5/6 24/25/7 23/24/6 
f 5/5/6 6/6/8 24/25/7 
f 6/8/8 25/26/9 24/27/7 
f 6/8/8 7/7/9 25/26/9 
f 7/7/9 26/28/10 25/26/9 
f 7/7/9 8/9/10 26/28/10 
f 8/9/10 27/29/11 26/28/10 
f 8/9/10 9/10/11 27/29/11 
f 9/10/11 28/30/12 27/29/11 
f 9/10/11 10/11/12 28/30/12 
f 10/11/12 29/31/13 28/30/12 
f 10/11/12 11/12/14 29/31/13 
f 11/12/14 30/32/15 29/31/13 
f 11/12/14 12/13/15 30/32/15 
f 12/13/15 31/33/16 30/32/15 
f 12/13/15 13/14/16 31/33/16 
f 13/14/16 32/34/17 31/33/16 
f 13/14/16 14/15/17 32/34/17 
f 14/15/17 33/35/18 32/34/17 
f 14/15/17 15/16/18 33/35/18 
f 15/16/18 34/36/19 33/35/18 
f 15/16/18 16/17/19 34/36/19 
f 16/17/19 35/37/20 34/36/19 
f 16/17/19 17/18/20 35/37/20 
f 17/18/20 36/38/21 35/37/20 
f 17/18/20 18/19/21 36/38/21 
f 18/19/21 37/39/22 36/38/21 
f 18/19/21 19/20/22 37/39/22 
f 19/20/22 21/22/4 37/39/22 
f 19/20/22 3/3/2 21/22/4 
f 21/22/4 38/40/3 39/41/4 
f 21/22/4 20/21/3 38/40/3 
f 20/21/3 40/42/5 38/40/3 
f 20/21/3 22/23/5 40/42/5 
f 22/23/5 41/43/6 40/42/5 
f 22/23/5 23/24/6 41/43/6 
f 23/24/6 42/44/7 41/43/6 
f 23/24/6 24/25/7 42/44/7 
f 24/27/7 43/45/9 42/46/7 
f 24/27/7 25/26/9 43/45/9 
f 25/26/9 44/47/10 43/45/9 
f 25/26/9 26/28/10 44/47/10 
f 26/28/10 45/48/11 44/47/10 
f 26/28/10 27/29/11 45/48/11 
f 27/29/11 46/49/12 45/48/11 
f 27/29/11 28/30/12 46/49/12 
f 28/30/12 47/50/13 46/49/12 
f 28/30/12 29/31/13 47/50/13 
f 29/31/13 48/51/15 47/50/13 
f 29/31/13 30/32/15 48/51/15 
f 30/32/15 49/52/16 48/51/15 
f 30/32/15 31/33/16 49/52/16 
f 31/33/16 50/53/17 49/52/16 
f 31/33/16 32/34/17 50/53/17 
f 32/34/17 51/54/18 50/53/17 
f 32/34/17 33/35/18 51/54/18 
f 33/35/18 52/55/19 51/54/18 
f 33/35/18 34/36/19 52/55/19 
f 34/36/19 53/56/20 52/55/19 
f 34/36/19 35/37/20 53/56/20 
f 35/37/20 54/57/21 53/56/20 
f 35/37/20 36/38/21 54/57/21 
f 36/38/21 55/58/22 54/57/21 
f 36/38/21 37/39/22 55/58/22 
f 37/39/22 39/41/4 55/58/22 
f 37/39/22 21/22/4 39/41/4 
f 39/41/4 56/59/3 57/60/4 
f 39/41/4 38/40/3 56/59/3 
f 38/40/3 58/61/5 56/59/3 
f 38/40/3 40/42/5 58/61/5 
f 40/42/5 59/62/6 58/61/5 
f 40/42/5 41/43/6 59/62/6 
f 41/43/6 60/63/7 59/62/6 
f 41/43/6 42/44/7 60/63/7 
f 42/46/7 61/64/9 60/65/7 
f 42/46/7 43/45/9 61/64/9 
f 43/45/9 62/66/10 61/64/9 
f 43/45/9 44/47/10 62/66/10 
f 44/47/10 63/67/11 62/66/10 
f 44/47/10 45/48/11 63/67/11 
f 45/48/11 64/68/12 63/67/11 
f 45/48/11 46/49/12 64/68/12 
f 46/49/12 65/69/14 64/68/12 
f 46/49/12 47/50/13 65/69/14 
f 47/50/13 66/70/15 65/69/14 
f 47/50/13 48/51/15 66/70/15 
f 48/51/15 67/71/16 66/70/15 
f 48/51/15 49/52/16 67/71/16 
f 49/52/16 68/72/17 67/71/16 
f 49/52/16 50/53/17 68/72/17 
f 50/53/17 69/73/18 68/72/17 
f 50/53/17 51/54/18 69/73/18 
f 51/54/18 70/74/19 69/73/18 
f 51/54/18 52/55/19 70/74/19 
f 52/55/19 71/75/20 70/74/19 
f 52/55/19 53/56/20 71/75/20 
f 53/56/20 72/76/21 71/75/20 
f 53/56/20 54/57/21 72/76/21 
f 54/57/21 73/77/22 72/76/21 
f 54/57/21 55/58/22 73/77/22 
f 55/58/22 57/60/4 73/77/22 
f 55/58/22 39/41/4 57/60/4 
f 57/60/4 74/78/3 75/79/4 
f 57/60/4 56/59/3 74/78/3 
f 56/59/3 76/80/5 74/78/3 
f 56/59/3 58/61/5 76/80/5 
f 58/61/5 77/81/6 76/80/5 
f 58/61/5 59/62/6 77/81/6 
f 59/62/6 78/82/7 77/81/6 
f 59/62/6 60/63/7 78/82/7 
f 60/65/7 79/83/9 78/84/7 
f 60/65/7 61/64/9 79/83/9 
f 61/64/9 80/85/10 79/83/9 
f 61/64/9 62/66/10 80/85/10 
f 62/66/10 81/86/11 80/85/10 
f 62/66/10 63/67/11 81/86/11 
f 63/67/11 82/87/12 81/86/11 
f 63/67/11 64/68/12 82/87/12 
f 64/68/12 83/88/13 82/87/12 
f 64/68/12 65/69/14 83/88/13 
f 65/69/14 84/89/15 83/88/13 
f 65/69/14 66/70/15 84/89/15 
f 66/70/15 85/90/16 84/89/15 
f 66/70/15 67/71/16 85/90/16 
f 67/71/16 86/91/17 85/90/16 
f 67/71/16 68/72/17 86/91/17 
f 68/72/17 87/92/18 86/91/17 
f 68/72/17 69/73/18 87/92/18 
f 69/73/18 88/93/19 87/92/18 
f 69/73/18 70/74/19 88/93/19 
f 70/74/19 89/94/20 88/93/19 
f 70/74/19 71/75/20 89/94/20 
f 71/75/20 90/95/21 89/94/20 
f 71/75/20 72/76/21 90/95/21 
f 72/76/21 91/96/22 90/95/21 
f 72/76/21 73/77/22 91/96/22 
f 73/77/22 75/79/4 91/96/22 
f 73/77/22 57/60/4 75/79/4 
f 75/79/4 92/97/3 93/98/4 
f 75/79/4 74/78/3 92/97/3 
f 74/78/3 94/99/5 92/97/3 
f 74/78/3 76/80/5 94/99/5 
f 76/80/5 95/100/6 94/99/5 
f 76/80/5 77/81/6 95/100/6 
f 77/81/6 96/101/7 95/100/6 
f 77/81/6 78/82/7 96/101/7 
f 78/84/7 97/102/23 96/103/7 
f 78/84/7 79/83/9 97/102/23 
f 79/83/9 98/104/10 97/102/23 
f 79/83/9 80/85/10 98/104/10 
f 80/85/10 99/105/11 98/104/10 
f 80/85/10 81/86/11 99/105/11 
f 81/86/11 100/106/12 99/105/11 
f 81/86/11 82/87/12 100/106/12 
f 82/87/12 101/107/13 100/106/12 
f 82/87/12 83/88/13 101/107/13 
f 83/88/13 102/108/15 101/107/13 
f 83/88/13 84/89/15 102/108/15 
f 84/89/15 103/109/16 102/108/15 
f 84/89/15 85/90/16 103/109/16 
f 85/90/16 104/110/17 103/109/16 
f 85/90/16 86/91/17 104/110/17 
f 86/91/17 105/111/18 104/110/17 
f 86/91/17 87/92/18 105/111/18 
f 87/92/18 106/112/19 105/111/18 
f 87/92/18 88/93/19 106/112/19 
f 88/93/19 107/113/20 106/112/19 
f 88/93/19 89/94/20 107/113/20 
f 89/94/20 108/114/21 107/113/20 
f 89/94/20 90/95/21 108/114/21 
f 90/95/21 109/115/22 108/114/21 
f 90/95/21 91/96/22 109/115/22 
f 91/96/22 93/98/4 109/115/22 
f 91/96/22 75/79/4 93/98/4 
f 110/116/24 93/98/24 92/97/24 
f 110/116/24 92/97/24 94/99/24 
f 110/116/24 94/99/24 95/100/24 
f 110/116/24 95/100/24 96/101/24 
f 110/116/24 96/103/24 97/102/24 
f 110/116/24 97/102/24 98/104/24 
f 110/116/24 98/104/24 99/105/24 
f 110/116/24 99/105/24 100/106/24 
f 110/116/24 100/106/24 101/107/24 
f 110/116/24 101/107/24 102/108/24 
f 110/116/24 102/108/24 103/109/24 
f 110/116/24 103/109/24 104/110/24 
f 110/116/24 104/110/24 105/111/24 
f 110/116/24 105/111/24 106/112/24 
f 110/116/24 106/112/24 107/113/24 
f 110/116/24 107/113/24 108/114/24 
f 110/116/24 108/114/24 109/115/24 
f 110/116/24 109/115/24 93/98/24 
# 216 faces

